<svg xmlns="http://www.w3.org/2000/svg" viewBox="0 0 900 620" role="img" aria-labelledby="title desc">
  <title id="title">问云小院插画</title>
  <desc id="desc">院门、灯笼、桌案和消息卡片组成的问云小院插画。</desc>
  <rect width="900" height="620" rx="8" fill="#eef4ef"/>
  <path d="M0 426 C180 344 298 458 470 390 C638 324 744 436 900 360 L900 620 L0 620 Z" fill="#dce9e3"/>
  <rect x="214" y="166" width="472" height="294" rx="8" fill="#fff8ea" stroke="#d5ae62" stroke-width="5"/>
  <path d="M260 166 L450 70 L640 166 Z" fill="#122327"/>
  <rect x="286" y="220" width="118" height="240" rx="8" fill="#557f76"/>
  <rect x="496" y="220" width="118" height="240" rx="8" fill="#557f76"/>
  <rect x="384" y="316" width="132" height="144" rx="66" fill="#ffffff" opacity="0.92"/>
  <circle cx="318" cy="286" r="60" fill="#d5ae62" opacity="0.26"/>
  <ellipse cx="318" cy="286" rx="18" ry="28" fill="#a83b32"/>
  <circle cx="582" cy="286" r="60" fill="#d5ae62" opacity="0.26"/>
  <ellipse cx="582" cy="286" rx="18" ry="28" fill="#a83b32"/>
  <text x="450" y="535" text-anchor="middle" font-size="42" font-family="SimSun, serif" font-weight="900" fill="#122327">问云小院</text>
</svg>