<svg xmlns="http://www.w3.org/2000/svg" viewBox="0 0 1440 960" role="img" aria-labelledby="title desc">
  <title id="title">问云派首页桌面端设计图</title>
  <desc id="desc">问云派二版首页桌面端 UI 设计图。</desc>
  <rect width="1440" height="960" fill="#eef4ef"/>
  <rect x="48" y="40" width="1344" height="82" rx="8" fill="#06171d" opacity="0.94"/>
  <text x="104" y="92" font-size="32" font-family="SimSun, serif" font-weight="900" fill="#fff8ea">问云派</text>
  <g font-family="Microsoft YaHei, sans-serif" font-size="16" fill="#fff8ea" opacity="0.88">
    <text x="760" y="88">立派金典</text><text x="850" y="88">问心考核</text><text x="950" y="88">问云名册</text><text x="1050" y="88">云灯留言</text><text x="1150" y="88">问云雅集</text>
  </g>
  <rect x="48" y="154" width="1344" height="486" rx="8" fill="#06171d"/>
  <image href="../03-视觉资产/背景/wenyun-hero-v2.svg" x="656" y="188" width="650" height="366" opacity="0.92"/>
  <text x="114" y="262" font-size="24" fill="#f7df9e" font-family="Microsoft YaHei, sans-serif" font-weight="700">问云山门 · 名册有序 · 门风有界</text>
  <text x="110" y="370" font-size="106" font-family="SimSun, serif" font-weight="900" fill="#fff8ea">问云派</text>
  <text x="116" y="426" font-size="24" fill="#dce9e3" font-family="Microsoft YaHei, sans-serif">乱世问云，心有所栖。此处以清明、温暖、真诚与边界守一方可归之地。</text>
  <rect x="116" y="492" width="150" height="54" rx="27" fill="#a83b32"/><text x="191" y="526" text-anchor="middle" font-size="18" fill="#fff8ea" font-family="Microsoft YaHei, sans-serif" font-weight="700">登记名册</text>
  <rect x="286" y="492" width="150" height="54" rx="27" fill="#fff8ea"/><text x="361" y="526" text-anchor="middle" font-size="18" fill="#122327" font-family="Microsoft YaHei, sans-serif" font-weight="700">问心考核</text>
  <g transform="translate(80 696)">
    <rect width="370" height="178" rx="8" fill="#fff8ea" stroke="#d5ae62" stroke-opacity="0.34"/>
    <rect x="430" width="370" height="178" rx="8" fill="#fff8ea" stroke="#d5ae62" stroke-opacity="0.34"/>
    <rect x="860" width="370" height="178" rx="8" fill="#fff8ea" stroke="#d5ae62" stroke-opacity="0.34"/>
    <text x="34" y="66" font-size="32" font-family="SimSun, serif" font-weight="900" fill="#122327">立派有典</text>
    <text x="464" y="66" font-size="32" font-family="SimSun, serif" font-weight="900" fill="#122327">入册有序</text>
    <text x="894" y="66" font-size="32" font-family="SimSun, serif" font-weight="900" fill="#122327">同门有礼</text>
  </g>
</svg>