<svg xmlns="http://www.w3.org/2000/svg" viewBox="0 0 1600 900" role="img" aria-labelledby="title desc">
  <title id="title">问云派山门远景</title>
  <desc id="desc">远山、云海、山门与灯火组成的问云派名门山门视觉资产。</desc>
  <defs>
    <linearGradient id="sky" x1="0" x2="0" y1="0" y2="1">
      <stop offset="0%" stop-color="#edf3ef"/>
      <stop offset="50%" stop-color="#f8f3e8"/>
      <stop offset="100%" stop-color="#dfe9e4"/>
    </linearGradient>
    <linearGradient id="mountain" x1="0" x2="1" y1="0" y2="1">
      <stop offset="0%" stop-color="#173144"/>
      <stop offset="100%" stop-color="#6f8f8b"/>
    </linearGradient>
    <radialGradient id="lamp" cx="50%" cy="50%" r="50%">
      <stop offset="0%" stop-color="#ffe4a5" stop-opacity="1"/>
      <stop offset="100%" stop-color="#c9a45c" stop-opacity="0"/>
    </radialGradient>
    <filter id="soft" x="-20%" y="-20%" width="140%" height="140%">
      <feGaussianBlur stdDeviation="12"/>
    </filter>
  </defs>
  <rect width="1600" height="900" fill="url(#sky)"/>
  <path d="M0 560 C150 420 260 350 410 430 C560 510 660 220 830 350 C1010 488 1110 260 1270 375 C1390 462 1480 435 1600 360 L1600 900 L0 900 Z" fill="#dbe7e1"/>
  <path d="M0 640 C180 468 340 420 470 500 C610 590 690 290 890 438 C1040 550 1170 345 1330 458 C1450 542 1530 520 1600 470 L1600 900 L0 900 Z" fill="url(#mountain)" opacity="0.86"/>
  <path d="M0 705 C260 650 430 692 650 640 C900 580 1060 650 1600 605 L1600 900 L0 900 Z" fill="#f6f4ef" opacity="0.82"/>
  <g filter="url(#soft)" opacity="0.62">
    <ellipse cx="360" cy="595" rx="260" ry="58" fill="#ffffff"/>
    <ellipse cx="780" cy="555" rx="360" ry="70" fill="#ffffff"/>
    <ellipse cx="1220" cy="590" rx="310" ry="62" fill="#ffffff"/>
  </g>
  <g transform="translate(628 392)">
    <path d="M48 318 L48 180 L108 180 L108 318 Z" fill="#173144"/>
    <path d="M356 318 L356 180 L416 180 L416 318 Z" fill="#173144"/>
    <path d="M12 170 L452 170 L412 112 L52 112 Z" fill="#263238"/>
    <path d="M58 112 L406 112 L358 54 L106 54 Z" fill="#143044"/>
    <path d="M145 318 L145 210 C145 160 319 160 319 210 L319 318 Z" fill="#fffaf0" opacity="0.92"/>
    <path d="M168 318 L168 226 C168 198 296 198 296 226 L296 318 Z" fill="#6f8f8b" opacity="0.78"/>
    <path d="M205 68 L259 68 L246 28 L218 28 Z" fill="#9e3d32"/>
    <circle cx="232" cy="246" r="70" fill="url(#lamp)" opacity="0.75"/>
  </g>
  <path d="M640 742 C715 705 875 705 956 742" fill="none" stroke="#c9a45c" stroke-width="6" opacity="0.58"/>
</svg>
