<svg xmlns="http://www.w3.org/2000/svg" viewBox="0 0 600 600" role="img" aria-labelledby="title desc">
  <title id="title">问云派二版宣纸纤维纹理</title>
  <desc id="desc">细密纸纹和浅金网格组成的柔和背景纹理。</desc>
  <rect width="600" height="600" fill="#fff8ea"/>
  <g opacity="0.22" stroke-linecap="round">
    <path d="M-60 62 C92 24 182 94 326 54 C452 18 534 36 660 14" stroke="#d5ae62" stroke-width="2"/>
    <path d="M-40 160 C100 116 210 196 356 148 C472 110 560 134 646 102" stroke="#557f76" stroke-width="1.8"/>
    <path d="M-60 318 C76 270 210 354 360 302 C468 264 548 286 650 250" stroke="#d5ae62" stroke-width="1.6"/>
    <path d="M-44 486 C106 438 232 520 372 476 C488 438 548 458 650 420" stroke="#557f76" stroke-width="1.7"/>
  </g>
  <g opacity="0.12" stroke="#122327" stroke-width="1">
    <path d="M0 80 H600 M0 180 H600 M0 280 H600 M0 380 H600 M0 480 H600"/>
    <path d="M80 0 V600 M180 0 V600 M280 0 V600 M380 0 V600 M480 0 V600"/>
  </g>
</svg>