<svg xmlns="http://www.w3.org/2000/svg" viewBox="0 0 1500 760" preserveAspectRatio="xMidYMid slice">
  <defs>
    <linearGradient id="bg" x1="0" y1="0" x2="0" y2="1">
      <stop offset="0" stop-color="#fff8ea"/>
      <stop offset="0.54" stop-color="#e9f0eb"/>
      <stop offset="1" stop-color="#d8e4df"/>
    </linearGradient>
    <filter id="blur">
      <feGaussianBlur stdDeviation="10"/>
    </filter>
  </defs>
  <rect width="1500" height="760" fill="url(#bg)"/>
  <g filter="url(#blur)" opacity="0.52">
    <path d="M-80 604C96 452 214 536 338 386C460 236 574 382 696 240C824 92 980 314 1114 178C1242 48 1378 138 1580 -70V760H-80Z" fill="#9ab2ad"/>
    <path d="M-70 682C122 560 276 620 422 500C576 374 716 526 870 404C1022 284 1164 430 1316 318C1420 242 1514 256 1580 190V760H-70Z" fill="#c6d5d1"/>
  </g>
  <g transform="translate(286 320)">
    <path d="M96 286H886" stroke="#c0d0cb" stroke-width="44" stroke-linecap="round"/>
    <path d="M196 166H790L734 126H252Z" fill="#1c5551"/>
    <path d="M226 116H760L704 76H282Z" fill="#123e3d"/>
    <path d="M278 54H650L610 24H318Z" fill="#1b5f59"/>
    <path d="M246 166h494v50H246z" fill="#194d49"/>
    <path d="M276 216h70v164h-70zM640 216h70v164h-70z" fill="#173b39"/>
    <path d="M392 220h202v160H392z" fill="#113533"/>
    <path d="M420 250h146v100H420z" fill="#1f5b55"/>
    <path d="M246 216h494" stroke="#c8a45d" stroke-width="5"/>
    <path d="M96 380H886" stroke="#7b9a94" stroke-width="6"/>
    <path d="M150 398C300 360 434 436 584 396C704 364 804 398 914 366" fill="none" stroke="#c8a45d" stroke-width="3"/>
  </g>
  <g opacity="0.75" fill="none" stroke="#416b66" stroke-width="3">
    <path d="M170 484c40-42 80-42 120 0"/>
    <path d="M1230 470c50-54 102-54 154 0"/>
    <path d="M1038 188c24-18 48-18 72 0"/>
  </g>
</svg>
