<svg xmlns="http://www.w3.org/2000/svg" viewBox="0 0 1500 760" preserveAspectRatio="xMidYMid slice">
  <defs>
    <linearGradient id="sky" x1="0" y1="0" x2="0" y2="1">
      <stop offset="0" stop-color="#fff6e5"/>
      <stop offset="0.48" stop-color="#eef2ec"/>
      <stop offset="1" stop-color="#d5e2df"/>
    </linearGradient>
    <radialGradient id="sun" cx="0.76" cy="0.24" r="0.16">
      <stop offset="0" stop-color="#f4bd68" stop-opacity="0.8"/>
      <stop offset="0.55" stop-color="#f4bd68" stop-opacity="0.26"/>
      <stop offset="1" stop-color="#f4bd68" stop-opacity="0"/>
    </radialGradient>
    <filter id="mist">
      <feGaussianBlur stdDeviation="14"/>
    </filter>
  </defs>
  <rect width="1500" height="760" fill="url(#sky)"/>
  <rect width="1500" height="760" fill="url(#sun)"/>
  <g opacity="0.62" filter="url(#mist)">
    <path d="M-120 610C42 430 164 516 286 342C396 184 520 318 644 184C768 50 872 268 990 126C1110 -18 1234 138 1334 38C1416 -42 1510 -22 1622 -118V760H-120Z" fill="#76948f"/>
    <path d="M-70 642C96 508 214 574 362 430C486 310 622 418 746 300C884 168 1034 312 1168 190C1274 92 1390 150 1570 20V760H-70Z" fill="#9fb7b2"/>
    <path d="M-150 690C30 560 184 612 336 506C488 400 630 510 790 404C960 292 1114 416 1268 318C1392 240 1512 278 1660 174V760H-150Z" fill="#cbd8d4"/>
  </g>
  <g opacity="0.42" stroke="#234a49" stroke-width="2" fill="none">
    <path d="M1225 132c22-16 45-16 66 0"/>
    <path d="M1284 170c20-13 40-13 58 0"/>
    <path d="M1132 116c15-10 30-10 44 0"/>
  </g>
  <g transform="translate(338 308)">
    <path d="M64 160H830" stroke="#0f3d3e" stroke-width="18" stroke-linecap="round"/>
    <path d="M96 112H798L746 74H148Z" fill="#0f5f59"/>
    <path d="M116 92H778L720 54H174Z" fill="#153f3e"/>
    <path d="M156 42H700L654 10H202Z" fill="#0f5f59"/>
    <path d="M134 116h608v34H134z" fill="#184f4b"/>
    <path d="M198 150h96v296h-96zM606 150h96v296h-96z" fill="#174845"/>
    <path d="M224 176h44v244h-44zM632 176h44v244h-44z" fill="#0d3433"/>
    <path d="M334 178h230v268H334z" fill="#0d3433" opacity="0.9"/>
    <path d="M374 214h150v232H374z" fill="#174845"/>
    <path d="M392 240h114v176H392z" fill="#0d3433"/>
    <path d="M134 150h608" stroke="#c8a45d" stroke-width="5"/>
    <path d="M220 166h46M632 166h46M382 228h134" stroke="#c8a45d" stroke-width="3" opacity="0.75"/>
    <circle cx="449" cy="326" r="13" fill="#c8a45d"/>
  </g>
  <g opacity="0.68">
    <path d="M0 650C200 620 360 682 532 646C700 610 862 662 1018 626C1208 582 1350 646 1500 602V760H0Z" fill="#dbe6e2"/>
    <path d="M0 700C160 672 300 724 470 690C650 654 792 706 958 672C1122 638 1300 696 1500 648V760H0Z" fill="#cadbd6"/>
  </g>
  <g transform="translate(116 592)" opacity="0.9">
    <path d="M0 54C46 8 92 8 138 54" fill="none" stroke="#315f5a" stroke-width="5"/>
    <path d="M30 54V92M108 54V92" stroke="#315f5a" stroke-width="5"/>
  </g>
</svg>
