<svg xmlns="http://www.w3.org/2000/svg" viewBox="0 0 1600 900" preserveAspectRatio="xMidYMid slice">
  <defs>
    <linearGradient id="paper" x1="0" y1="0" x2="0" y2="1">
      <stop offset="0" stop-color="#f8f1e4"/>
      <stop offset="0.48" stop-color="#f4eddf"/>
      <stop offset="1" stop-color="#e7eee9"/>
    </linearGradient>
    <radialGradient id="warm" cx="0.82" cy="0.12" r="0.38">
      <stop offset="0" stop-color="#eed9a2" stop-opacity="0.45"/>
      <stop offset="1" stop-color="#eed9a2" stop-opacity="0"/>
    </radialGradient>
    <filter id="soft">
      <feGaussianBlur stdDeviation="10"/>
    </filter>
    <pattern id="grain" width="80" height="80" patternUnits="userSpaceOnUse">
      <path d="M0 16H80M0 52H80M18 0V80M57 0V80" stroke="#173332" stroke-opacity="0.035" stroke-width="1"/>
      <circle cx="16" cy="18" r="1" fill="#7b6b4a" fill-opacity="0.12"/>
      <circle cx="62" cy="46" r="1.2" fill="#173332" fill-opacity="0.07"/>
    </pattern>
  </defs>
  <rect width="1600" height="900" fill="url(#paper)"/>
  <rect width="1600" height="900" fill="url(#warm)"/>
  <rect width="1600" height="900" fill="url(#grain)" opacity="0.65"/>
  <g opacity="0.36" filter="url(#soft)">
    <path d="M-70 665C80 560 184 593 294 520C420 436 522 487 640 405C792 300 914 382 1010 302C1118 214 1254 268 1338 206C1440 130 1548 178 1670 70V900H-70Z" fill="#d8e2df"/>
    <path d="M-80 742C94 634 238 668 382 590C514 520 642 562 754 484C895 386 1040 454 1166 366C1302 272 1460 324 1680 168V900H-80Z" fill="#c3d2cf"/>
  </g>
  <g opacity="0.45">
    <path d="M0 808C130 780 240 842 376 803C518 762 640 802 780 766C936 724 1054 792 1196 748C1328 708 1450 742 1600 690" fill="none" stroke="#c8a45d" stroke-width="2"/>
    <path d="M0 846C164 816 280 874 434 833C586 792 720 842 870 804C1032 762 1160 826 1308 786C1438 750 1518 766 1600 730" fill="none" stroke="#c8a45d" stroke-width="1.6"/>
    <path d="M0 876C172 848 316 894 490 858C654 824 790 860 936 830C1116 792 1262 846 1424 812C1496 796 1552 792 1600 786" fill="none" stroke="#b88942" stroke-width="1"/>
  </g>
  <g transform="translate(1290 68)" opacity="0.8">
    <path d="M0 22H190M190 22C224 22 220 4 190 4H116" fill="none" stroke="#c8a45d" stroke-width="3" stroke-linecap="round"/>
    <circle cx="226" cy="22" r="3" fill="#b8473f"/>
  </g>
</svg>
