<svg xmlns="http://www.w3.org/2000/svg" viewBox="0 0 1600 900" role="img" aria-labelledby="title desc">
  <title id="title">问云派二版山门主视觉</title>
  <desc id="desc">云海、山门、玉阶、灯火和远山组成的问云派二版网站主视觉。</desc>
  <defs>
    <linearGradient id="sky" x1="0" x2="0" y1="0" y2="1">
      <stop offset="0%" stop-color="#f6fbf7"/>
      <stop offset="42%" stop-color="#dce9e3"/>
      <stop offset="100%" stop-color="#fff3d9"/>
    </linearGradient>
    <linearGradient id="ridge" x1="0" x2="1" y1="0" y2="1">
      <stop offset="0%" stop-color="#122327"/>
      <stop offset="58%" stop-color="#557f76"/>
      <stop offset="100%" stop-color="#9fb08a"/>
    </linearGradient>
    <linearGradient id="gate" x1="0" x2="1" y1="0" y2="1">
      <stop offset="0%" stop-color="#14292f"/>
      <stop offset="55%" stop-color="#36524d"/>
      <stop offset="100%" stop-color="#5f5140"/>
    </linearGradient>
    <radialGradient id="lampGlow" cx="50%" cy="50%" r="50%">
      <stop offset="0%" stop-color="#fff3bc" stop-opacity="1"/>
      <stop offset="100%" stop-color="#d5ae62" stop-opacity="0"/>
    </radialGradient>
    <filter id="blurCloud" x="-20%" y="-30%" width="140%" height="160%">
      <feGaussianBlur stdDeviation="14"/>
    </filter>
    <filter id="softShadow" x="-30%" y="-30%" width="160%" height="160%">
      <feDropShadow dx="0" dy="22" stdDeviation="18" flood-color="#06171d" flood-opacity="0.28"/>
    </filter>
  </defs>
  <rect width="1600" height="900" fill="url(#sky)"/>
  <path d="M0 486 C188 360 318 338 461 432 C612 531 692 202 875 342 C1025 456 1169 296 1328 390 C1442 457 1527 438 1600 393 L1600 900 L0 900 Z" fill="#c8d9d2"/>
  <path d="M0 572 C205 410 377 410 520 506 C682 614 750 302 943 452 C1097 571 1232 382 1390 492 C1498 567 1560 546 1600 520 L1600 900 L0 900 Z" fill="url(#ridge)" opacity="0.92"/>
  <path d="M0 696 C240 636 430 690 640 632 C842 576 1016 650 1206 614 C1368 584 1506 598 1600 574 L1600 900 L0 900 Z" fill="#fff8ea" opacity="0.88"/>
  <g filter="url(#blurCloud)" opacity="0.72">
    <ellipse cx="246" cy="585" rx="258" ry="58" fill="#ffffff"/>
    <ellipse cx="694" cy="544" rx="354" ry="72" fill="#ffffff"/>
    <ellipse cx="1160" cy="594" rx="324" ry="64" fill="#ffffff"/>
    <ellipse cx="1370" cy="716" rx="314" ry="58" fill="#fffaf0"/>
    <ellipse cx="490" cy="742" rx="372" ry="62" fill="#fffaf0"/>
  </g>
  <g transform="translate(559 246)" filter="url(#softShadow)">
    <path d="M241 0 L548 156 L487 164 L487 220 L429 220 L429 568 L346 568 L346 319 C346 256 136 256 136 319 L136 568 L53 568 L53 220 L0 220 L293 68 Z" fill="url(#gate)"/>
    <path d="M-22 220 L570 220 L518 149 L30 149 Z" fill="#172b2c"/>
    <path d="M54 149 L492 149 L426 82 L118 82 Z" fill="#263b3b"/>
    <path d="M191 319 C191 288 291 288 291 319 L291 568 L191 568 Z" fill="#fff8ea" opacity="0.92"/>
    <path d="M212 333 C212 312 270 312 270 333 L270 568 L212 568 Z" fill="#557f76" opacity="0.75"/>
    <rect x="119" y="254" width="244" height="56" rx="8" fill="#d5ae62" opacity="0.92"/>
    <path d="M163 282 L95 348" stroke="#f7df9e" stroke-width="10" stroke-linecap="round" opacity="0.82"/>
    <path d="M319 282 L387 348" stroke="#f7df9e" stroke-width="10" stroke-linecap="round" opacity="0.82"/>
    <rect x="204" y="102" width="78" height="46" rx="6" fill="#a83b32"/>
    <text x="243" y="133" text-anchor="middle" font-size="25" font-family="SimSun, serif" font-weight="700" fill="#fff8ea">问云</text>
  </g>
  <g opacity="0.9">
    <circle cx="522" cy="548" r="92" fill="url(#lampGlow)"/>
    <circle cx="749" cy="548" r="92" fill="url(#lampGlow)"/>
    <circle cx="856" cy="548" r="92" fill="url(#lampGlow)"/>
    <circle cx="1080" cy="548" r="92" fill="url(#lampGlow)"/>
    <g fill="#a83b32">
      <ellipse cx="522" cy="548" rx="21" ry="32"/>
      <ellipse cx="749" cy="548" rx="21" ry="32"/>
      <ellipse cx="856" cy="548" rx="21" ry="32"/>
      <ellipse cx="1080" cy="548" rx="21" ry="32"/>
    </g>
  </g>
  <path d="M560 728 C668 684 922 684 1038 728" fill="none" stroke="#d5ae62" stroke-width="8" stroke-linecap="round" opacity="0.6"/>
  <path d="M612 766 C708 736 880 736 988 766" fill="none" stroke="#557f76" stroke-width="5" stroke-linecap="round" opacity="0.45"/>
</svg>